<mxfile host="Electron" agent="Mozilla/5.0 (Windows NT 10.0; Win64; x64) AppleWebKit/537.36 (KHTML, like Gecko) draw.io/28.1.2 Chrome/138.0.7204.243 Electron/37.4.0 Safari/537.36" version="28.1.2" pages="2">
  <diagram id="4L_poDnGqfmro7xK-7zi" name="sd1">
    <mxGraphModel dx="861" dy="669" grid="1" gridSize="10" guides="1" tooltips="1" connect="1" arrows="1" fold="1" page="1" pageScale="1" pageWidth="1169" pageHeight="827" math="0" shadow="0">
      <root>
        <mxCell id="0" />
        <mxCell id="1" parent="0" />
        <mxCell id="rEHAQ21BTsjnatGqc2Ci-1" style="edgeStyle=orthogonalEdgeStyle;rounded=0;orthogonalLoop=1;jettySize=auto;html=1;exitX=0.5;exitY=1;exitDx=0;exitDy=0;endArrow=none;endFill=0;" parent="1" source="rEHAQ21BTsjnatGqc2Ci-2" edge="1">
          <mxGeometry relative="1" as="geometry">
            <mxPoint x="580" y="160" as="targetPoint" />
          </mxGeometry>
        </mxCell>
        <mxCell id="rEHAQ21BTsjnatGqc2Ci-2" value="Coin Flipper" style="rounded=0;whiteSpace=wrap;html=1;" parent="1" vertex="1">
          <mxGeometry x="520" y="80" width="120" height="60" as="geometry" />
        </mxCell>
        <mxCell id="rEHAQ21BTsjnatGqc2Ci-3" style="edgeStyle=orthogonalEdgeStyle;rounded=0;orthogonalLoop=1;jettySize=auto;html=1;exitX=0.5;exitY=0;exitDx=0;exitDy=0;endArrow=none;endFill=0;" parent="1" source="rEHAQ21BTsjnatGqc2Ci-4" edge="1">
          <mxGeometry relative="1" as="geometry">
            <mxPoint x="340.3103448275863" y="160" as="targetPoint" />
          </mxGeometry>
        </mxCell>
        <mxCell id="rEHAQ21BTsjnatGqc2Ci-26" style="edgeStyle=orthogonalEdgeStyle;rounded=0;orthogonalLoop=1;jettySize=auto;html=1;exitX=0.5;exitY=1;exitDx=0;exitDy=0;entryX=0.5;entryY=0;entryDx=0;entryDy=0;endArrow=none;endFill=0;" parent="1" source="rEHAQ21BTsjnatGqc2Ci-4" target="rEHAQ21BTsjnatGqc2Ci-25" edge="1">
          <mxGeometry relative="1" as="geometry" />
        </mxCell>
        <mxCell id="rEHAQ21BTsjnatGqc2Ci-4" value="Import random module" style="rounded=0;whiteSpace=wrap;html=1;" parent="1" vertex="1">
          <mxGeometry x="280" y="200" width="120" height="60" as="geometry" />
        </mxCell>
        <mxCell id="rEHAQ21BTsjnatGqc2Ci-7" value="Display &quot;Correct&quot;" style="rounded=0;whiteSpace=wrap;html=1;" parent="1" vertex="1">
          <mxGeometry x="680" y="300" width="120" height="60" as="geometry" />
        </mxCell>
        <mxCell id="rEHAQ21BTsjnatGqc2Ci-8" value="" style="endArrow=none;html=1;rounded=0;" parent="1" edge="1">
          <mxGeometry width="50" height="50" relative="1" as="geometry">
            <mxPoint x="340" y="160" as="sourcePoint" />
            <mxPoint x="820" y="160" as="targetPoint" />
          </mxGeometry>
        </mxCell>
        <mxCell id="rEHAQ21BTsjnatGqc2Ci-11" style="edgeStyle=orthogonalEdgeStyle;rounded=0;orthogonalLoop=1;jettySize=auto;html=1;exitX=0.5;exitY=0;exitDx=0;exitDy=0;endArrow=none;endFill=0;" parent="1" edge="1">
          <mxGeometry relative="1" as="geometry">
            <mxPoint x="500" y="160" as="targetPoint" />
            <mxPoint x="500" y="200" as="sourcePoint" />
          </mxGeometry>
        </mxCell>
        <mxCell id="rEHAQ21BTsjnatGqc2Ci-17" value="&lt;span&gt;Display &quot;Incorrect&quot;&lt;/span&gt;" style="rounded=0;whiteSpace=wrap;html=1;align=center;" parent="1" vertex="1">
          <mxGeometry x="840" y="300" width="120" height="60" as="geometry" />
        </mxCell>
        <mxCell id="rEHAQ21BTsjnatGqc2Ci-19" value="Get guess from user&lt;br&gt;(0 or 1)" style="rounded=0;whiteSpace=wrap;html=1;" parent="1" vertex="1">
          <mxGeometry x="600" y="200" width="120" height="60" as="geometry" />
        </mxCell>
        <mxCell id="rEHAQ21BTsjnatGqc2Ci-20" style="edgeStyle=orthogonalEdgeStyle;rounded=0;orthogonalLoop=1;jettySize=auto;html=1;exitX=0.5;exitY=0;exitDx=0;exitDy=0;endArrow=none;endFill=0;" parent="1" edge="1">
          <mxGeometry relative="1" as="geometry">
            <mxPoint x="660" y="160" as="targetPoint" />
            <mxPoint x="660" y="200" as="sourcePoint" />
          </mxGeometry>
        </mxCell>
        <mxCell id="rEHAQ21BTsjnatGqc2Ci-24" value="Pick random number&lt;br&gt;(0 or 1)" style="rounded=0;whiteSpace=wrap;html=1;" parent="1" vertex="1">
          <mxGeometry x="440" y="200" width="120" height="60" as="geometry" />
        </mxCell>
        <mxCell id="rEHAQ21BTsjnatGqc2Ci-25" value="Initialise variables" style="rounded=0;whiteSpace=wrap;html=1;" parent="1" vertex="1">
          <mxGeometry x="280" y="300" width="120" height="60" as="geometry" />
        </mxCell>
        <mxCell id="fRaN85S7PFvlBmx2Wvc--3" style="edgeStyle=orthogonalEdgeStyle;rounded=0;orthogonalLoop=1;jettySize=auto;html=1;exitX=0.5;exitY=0;exitDx=0;exitDy=0;endArrow=none;endFill=0;" parent="1" source="fRaN85S7PFvlBmx2Wvc--1" edge="1">
          <mxGeometry relative="1" as="geometry">
            <mxPoint x="820" y="160" as="targetPoint" />
          </mxGeometry>
        </mxCell>
        <mxCell id="fRaN85S7PFvlBmx2Wvc--7" style="rounded=0;orthogonalLoop=1;jettySize=auto;html=1;exitX=0.25;exitY=1;exitDx=0;exitDy=0;entryX=0.5;entryY=0;entryDx=0;entryDy=0;endArrow=none;endFill=0;" parent="1" source="fRaN85S7PFvlBmx2Wvc--4" target="rEHAQ21BTsjnatGqc2Ci-7" edge="1">
          <mxGeometry relative="1" as="geometry" />
        </mxCell>
        <mxCell id="fRaN85S7PFvlBmx2Wvc--8" style="edgeStyle=none;rounded=0;orthogonalLoop=1;jettySize=auto;html=1;exitX=0.75;exitY=1;exitDx=0;exitDy=0;entryX=0.5;entryY=0;entryDx=0;entryDy=0;endArrow=none;endFill=0;" parent="1" source="fRaN85S7PFvlBmx2Wvc--4" target="rEHAQ21BTsjnatGqc2Ci-17" edge="1">
          <mxGeometry relative="1" as="geometry" />
        </mxCell>
        <mxCell id="fRaN85S7PFvlBmx2Wvc--9" value="Yes" style="text;html=1;strokeColor=none;fillColor=none;align=center;verticalAlign=middle;whiteSpace=wrap;rounded=0;" parent="1" vertex="1">
          <mxGeometry x="730" y="250" width="60" height="30" as="geometry" />
        </mxCell>
        <mxCell id="fRaN85S7PFvlBmx2Wvc--10" value="" style="group" parent="1" vertex="1" connectable="0">
          <mxGeometry x="760" y="200" width="120" height="60" as="geometry" />
        </mxCell>
        <mxCell id="fRaN85S7PFvlBmx2Wvc--1" value="" style="verticalLabelPosition=bottom;verticalAlign=top;html=1;shape=hexagon;perimeter=hexagonPerimeter2;arcSize=6;size=0.2;" parent="fRaN85S7PFvlBmx2Wvc--10" vertex="1">
          <mxGeometry width="120" height="60" as="geometry" />
        </mxCell>
        <mxCell id="fRaN85S7PFvlBmx2Wvc--4" value="Is guess&lt;div&gt;correct?&lt;/div&gt;" style="text;html=1;strokeColor=none;fillColor=none;align=center;verticalAlign=middle;whiteSpace=wrap;rounded=0;" parent="fRaN85S7PFvlBmx2Wvc--10" vertex="1">
          <mxGeometry x="10" width="100" height="60" as="geometry" />
        </mxCell>
        <mxCell id="fRaN85S7PFvlBmx2Wvc--11" value="No" style="text;html=1;strokeColor=none;fillColor=none;align=center;verticalAlign=middle;whiteSpace=wrap;rounded=0;" parent="1" vertex="1">
          <mxGeometry x="850" y="250" width="60" height="30" as="geometry" />
        </mxCell>
      </root>
    </mxGraphModel>
  </diagram>
  <diagram name="sd2" id="pVvGLoqlEOHq6GKQfAXf">
    <mxGraphModel dx="861" dy="669" grid="1" gridSize="10" guides="1" tooltips="1" connect="1" arrows="1" fold="1" page="1" pageScale="1" pageWidth="1169" pageHeight="827" math="0" shadow="0">
      <root>
        <mxCell id="FvLrBrrPrmTuyrr0h8iF-0" />
        <mxCell id="FvLrBrrPrmTuyrr0h8iF-1" parent="FvLrBrrPrmTuyrr0h8iF-0" />
        <mxCell id="FvLrBrrPrmTuyrr0h8iF-2" style="edgeStyle=orthogonalEdgeStyle;rounded=0;orthogonalLoop=1;jettySize=auto;html=1;exitX=0.5;exitY=1;exitDx=0;exitDy=0;endArrow=none;endFill=0;" edge="1" parent="FvLrBrrPrmTuyrr0h8iF-1" source="FvLrBrrPrmTuyrr0h8iF-3">
          <mxGeometry relative="1" as="geometry">
            <mxPoint x="580" y="160" as="targetPoint" />
          </mxGeometry>
        </mxCell>
        <mxCell id="FvLrBrrPrmTuyrr0h8iF-3" value="Zero or One?" style="rounded=0;whiteSpace=wrap;html=1;" vertex="1" parent="FvLrBrrPrmTuyrr0h8iF-1">
          <mxGeometry x="520" y="80" width="120" height="60" as="geometry" />
        </mxCell>
        <mxCell id="FvLrBrrPrmTuyrr0h8iF-4" style="edgeStyle=orthogonalEdgeStyle;rounded=0;orthogonalLoop=1;jettySize=auto;html=1;exitX=0.5;exitY=0;exitDx=0;exitDy=0;endArrow=none;endFill=0;" edge="1" parent="FvLrBrrPrmTuyrr0h8iF-1" source="FvLrBrrPrmTuyrr0h8iF-6">
          <mxGeometry relative="1" as="geometry">
            <mxPoint x="340.3103448275863" y="160" as="targetPoint" />
          </mxGeometry>
        </mxCell>
        <mxCell id="FvLrBrrPrmTuyrr0h8iF-5" style="edgeStyle=orthogonalEdgeStyle;rounded=0;orthogonalLoop=1;jettySize=auto;html=1;exitX=0.5;exitY=1;exitDx=0;exitDy=0;entryX=0.5;entryY=0;entryDx=0;entryDy=0;endArrow=none;endFill=0;" edge="1" parent="FvLrBrrPrmTuyrr0h8iF-1" source="FvLrBrrPrmTuyrr0h8iF-6" target="FvLrBrrPrmTuyrr0h8iF-14">
          <mxGeometry relative="1" as="geometry" />
        </mxCell>
        <mxCell id="FvLrBrrPrmTuyrr0h8iF-6" value="Import module" style="rounded=0;whiteSpace=wrap;html=1;" vertex="1" parent="FvLrBrrPrmTuyrr0h8iF-1">
          <mxGeometry x="280" y="200" width="120" height="60" as="geometry" />
        </mxCell>
        <mxCell id="FvLrBrrPrmTuyrr0h8iF-7" value="Display &quot;Correct&quot;" style="rounded=0;whiteSpace=wrap;html=1;" vertex="1" parent="FvLrBrrPrmTuyrr0h8iF-1">
          <mxGeometry x="680" y="300" width="120" height="60" as="geometry" />
        </mxCell>
        <mxCell id="FvLrBrrPrmTuyrr0h8iF-8" value="" style="endArrow=none;html=1;rounded=0;" edge="1" parent="FvLrBrrPrmTuyrr0h8iF-1">
          <mxGeometry width="50" height="50" relative="1" as="geometry">
            <mxPoint x="340" y="160" as="sourcePoint" />
            <mxPoint x="820" y="160" as="targetPoint" />
          </mxGeometry>
        </mxCell>
        <mxCell id="FvLrBrrPrmTuyrr0h8iF-9" style="edgeStyle=orthogonalEdgeStyle;rounded=0;orthogonalLoop=1;jettySize=auto;html=1;exitX=0.5;exitY=0;exitDx=0;exitDy=0;endArrow=none;endFill=0;" edge="1" parent="FvLrBrrPrmTuyrr0h8iF-1">
          <mxGeometry relative="1" as="geometry">
            <mxPoint x="500" y="160" as="targetPoint" />
            <mxPoint x="500" y="200" as="sourcePoint" />
          </mxGeometry>
        </mxCell>
        <mxCell id="FvLrBrrPrmTuyrr0h8iF-10" value="&lt;span&gt;Display &quot;Wrong&quot;&lt;/span&gt;" style="rounded=0;whiteSpace=wrap;html=1;align=center;" vertex="1" parent="FvLrBrrPrmTuyrr0h8iF-1">
          <mxGeometry x="840" y="300" width="120" height="60" as="geometry" />
        </mxCell>
        <mxCell id="FvLrBrrPrmTuyrr0h8iF-11" value="Get valid guess from user&lt;br&gt;(0 or 1)" style="rounded=0;whiteSpace=wrap;html=1;" vertex="1" parent="FvLrBrrPrmTuyrr0h8iF-1">
          <mxGeometry x="600" y="200" width="120" height="60" as="geometry" />
        </mxCell>
        <mxCell id="FvLrBrrPrmTuyrr0h8iF-12" style="edgeStyle=orthogonalEdgeStyle;rounded=0;orthogonalLoop=1;jettySize=auto;html=1;exitX=0.5;exitY=0;exitDx=0;exitDy=0;endArrow=none;endFill=0;" edge="1" parent="FvLrBrrPrmTuyrr0h8iF-1">
          <mxGeometry relative="1" as="geometry">
            <mxPoint x="660" y="160" as="targetPoint" />
            <mxPoint x="660" y="200" as="sourcePoint" />
          </mxGeometry>
        </mxCell>
        <mxCell id="FvLrBrrPrmTuyrr0h8iF-13" value="Pick random number&lt;br&gt;(0 or 1)" style="rounded=0;whiteSpace=wrap;html=1;" vertex="1" parent="FvLrBrrPrmTuyrr0h8iF-1">
          <mxGeometry x="440" y="200" width="120" height="60" as="geometry" />
        </mxCell>
        <mxCell id="FvLrBrrPrmTuyrr0h8iF-14" value="Initialise variables" style="rounded=0;whiteSpace=wrap;html=1;" vertex="1" parent="FvLrBrrPrmTuyrr0h8iF-1">
          <mxGeometry x="280" y="300" width="120" height="60" as="geometry" />
        </mxCell>
        <mxCell id="FvLrBrrPrmTuyrr0h8iF-15" style="edgeStyle=orthogonalEdgeStyle;rounded=0;orthogonalLoop=1;jettySize=auto;html=1;exitX=0.5;exitY=0;exitDx=0;exitDy=0;endArrow=none;endFill=0;" edge="1" parent="FvLrBrrPrmTuyrr0h8iF-1" source="FvLrBrrPrmTuyrr0h8iF-20">
          <mxGeometry relative="1" as="geometry">
            <mxPoint x="820" y="160" as="targetPoint" />
          </mxGeometry>
        </mxCell>
        <mxCell id="FvLrBrrPrmTuyrr0h8iF-16" style="rounded=0;orthogonalLoop=1;jettySize=auto;html=1;exitX=0.25;exitY=1;exitDx=0;exitDy=0;entryX=0.5;entryY=0;entryDx=0;entryDy=0;endArrow=none;endFill=0;" edge="1" parent="FvLrBrrPrmTuyrr0h8iF-1" source="FvLrBrrPrmTuyrr0h8iF-21" target="FvLrBrrPrmTuyrr0h8iF-7">
          <mxGeometry relative="1" as="geometry" />
        </mxCell>
        <mxCell id="FvLrBrrPrmTuyrr0h8iF-17" style="edgeStyle=none;rounded=0;orthogonalLoop=1;jettySize=auto;html=1;exitX=0.75;exitY=1;exitDx=0;exitDy=0;entryX=0.5;entryY=0;entryDx=0;entryDy=0;endArrow=none;endFill=0;" edge="1" parent="FvLrBrrPrmTuyrr0h8iF-1" source="FvLrBrrPrmTuyrr0h8iF-21" target="FvLrBrrPrmTuyrr0h8iF-10">
          <mxGeometry relative="1" as="geometry" />
        </mxCell>
        <mxCell id="FvLrBrrPrmTuyrr0h8iF-18" value="Yes" style="text;html=1;strokeColor=none;fillColor=none;align=center;verticalAlign=middle;whiteSpace=wrap;rounded=0;" vertex="1" parent="FvLrBrrPrmTuyrr0h8iF-1">
          <mxGeometry x="730" y="250" width="60" height="30" as="geometry" />
        </mxCell>
        <mxCell id="FvLrBrrPrmTuyrr0h8iF-19" value="" style="group" vertex="1" connectable="0" parent="FvLrBrrPrmTuyrr0h8iF-1">
          <mxGeometry x="760" y="200" width="120" height="60" as="geometry" />
        </mxCell>
        <mxCell id="FvLrBrrPrmTuyrr0h8iF-20" value="" style="verticalLabelPosition=bottom;verticalAlign=top;html=1;shape=hexagon;perimeter=hexagonPerimeter2;arcSize=6;size=0.2;" vertex="1" parent="FvLrBrrPrmTuyrr0h8iF-19">
          <mxGeometry width="120" height="60" as="geometry" />
        </mxCell>
        <mxCell id="FvLrBrrPrmTuyrr0h8iF-21" value="Is guess correct?" style="text;html=1;strokeColor=none;fillColor=none;align=center;verticalAlign=middle;whiteSpace=wrap;rounded=0;" vertex="1" parent="FvLrBrrPrmTuyrr0h8iF-19">
          <mxGeometry x="10" width="100" height="60" as="geometry" />
        </mxCell>
        <mxCell id="FvLrBrrPrmTuyrr0h8iF-22" value="No" style="text;html=1;strokeColor=none;fillColor=none;align=center;verticalAlign=middle;whiteSpace=wrap;rounded=0;" vertex="1" parent="FvLrBrrPrmTuyrr0h8iF-1">
          <mxGeometry x="850" y="250" width="60" height="30" as="geometry" />
        </mxCell>
      </root>
    </mxGraphModel>
  </diagram>
</mxfile>
